<?xml version="1.0" standalone="no"?>
<!DOCTYPE svg PUBLIC "-//W3C//DTD SVG 20010904//EN"
 "http://www.w3.org/TR/2001/REC-SVG-20010904/DTD/svg10.dtd">
<svg version="1.0" xmlns="http://www.w3.org/2000/svg"
 width="700.000000pt" height="700.000000pt" viewBox="0 0 700.000000 700.000000"
 preserveAspectRatio="xMidYMid meet">
<metadata>
Created by potrace 1.14, written by Peter Selinger 2001-2017
</metadata>
<g transform="translate(0.000000,700.000000) scale(0.100000,-0.100000)"
fill="#000000" stroke="none">
<path d="M3236 6993 c-6 -6 -84 -13 -178 -16 -31 -1 -54 -5 -51 -9 2 -5 -2 -8
-9 -9 -7 0 -26 -2 -43 -5 -16 -2 -45 -5 -62 -6 -18 -2 -33 -7 -33 -13 0 -5 -5
-3 -10 5 -5 8 -10 10 -10 5 0 -6 -8 -12 -17 -13 -29 -3 -47 -7 -58 -13 -5 -3
-22 -5 -37 -4 -16 0 -28 -3 -28 -7 0 -4 -3 -7 -7 -7 -5 1 -11 0 -15 -1 -17 -5
-29 -8 -49 -9 -11 0 -18 -5 -15 -10 3 -4 -10 -6 -29 -4 -20 2 -35 -1 -35 -7 0
-5 -3 -9 -7 -9 -5 1 -10 0 -13 -1 -3 -1 -18 -4 -35 -6 -16 -3 -35 -10 -42 -16
-7 -5 -17 -7 -23 -3 -5 3 -10 1 -10 -5 0 -7 -7 -10 -15 -6 -8 3 -15 2 -15 -2
0 -7 -101 -38 -108 -33 -1 1 -10 -5 -19 -14 -8 -9 -21 -14 -29 -11 -7 3 -18
-2 -24 -10 -7 -8 -21 -14 -31 -14 -11 0 -19 -5 -19 -11 0 -5 -4 -8 -10 -4 -9
6 -40 -9 -74 -35 -17 -13 -18 -13 -11 0 7 12 6 13 -7 3 -8 -7 -18 -10 -21 -6
-4 3 -7 1 -7 -6 0 -7 -4 -9 -10 -6 -5 3 -10 2 -10 -2 0 -5 -42 -28 -92 -53
-51 -25 -94 -48 -96 -52 -2 -4 -19 -12 -38 -18 -19 -6 -34 -16 -34 -21 0 -5
-6 -9 -14 -9 -7 0 -19 -7 -26 -15 -7 -8 -16 -12 -21 -9 -5 3 -9 0 -9 -5 0 -6
-7 -11 -15 -11 -8 0 -15 -4 -15 -9 0 -5 -13 -14 -30 -21 -16 -7 -30 -17 -30
-22 0 -5 -4 -7 -9 -4 -5 3 -11 -1 -15 -9 -3 -8 -12 -15 -19 -15 -8 0 -28 -13
-45 -29 -16 -16 -33 -27 -36 -24 -3 3 -14 -5 -25 -18 -11 -13 -20 -21 -21 -17
0 6 -41 -26 -81 -64 -11 -10 -24 -18 -29 -18 -6 0 -13 -7 -16 -15 -4 -8 -12
-15 -20 -15 -8 0 -14 -7 -14 -15 0 -8 -3 -14 -8 -13 -9 3 -32 -15 -69 -54 -15
-16 -33 -28 -40 -28 -8 0 -12 -4 -9 -8 2 -4 -9 -17 -25 -27 -16 -11 -29 -26
-29 -32 0 -7 -5 -13 -10 -13 -12 0 -120 -111 -120 -123 0 -4 -5 -5 -10 -2 -5
3 -10 1 -10 -4 0 -6 -14 -24 -31 -41 -18 -16 -29 -30 -26 -30 4 0 -6 -12 -21
-27 -15 -16 -46 -50 -67 -78 -22 -27 -48 -59 -58 -70 -10 -11 -25 -35 -34 -52
-8 -18 -19 -30 -24 -27 -5 3 -9 -4 -9 -16 0 -12 -5 -18 -10 -15 -6 3 -10 1
-10 -4 0 -6 -9 -20 -20 -31 -11 -11 -18 -20 -15 -20 2 0 -25 -44 -60 -99 -36
-54 -65 -104 -65 -110 0 -6 -3 -11 -7 -11 -5 0 -13 -10 -19 -23 -6 -12 -40
-78 -75 -147 -35 -69 -63 -128 -61 -132 1 -5 -3 -8 -8 -8 -5 0 -9 -3 -8 -7 1
-5 -5 -21 -12 -38 -8 -16 -14 -34 -15 -40 -1 -5 -9 -25 -18 -42 -10 -18 -15
-33 -11 -33 4 0 1 -6 -5 -13 -6 -8 -8 -17 -4 -20 3 -4 1 -7 -5 -7 -7 0 -12 -8
-12 -18 0 -10 -4 -22 -10 -28 -5 -5 -11 -18 -13 -29 -2 -11 -9 -32 -15 -48 -7
-15 -14 -38 -16 -50 -2 -12 -11 -43 -20 -68 -9 -25 -18 -56 -20 -70 -3 -13 -5
-24 -6 -24 -1 0 -3 -7 -5 -15 -8 -31 -15 -61 -21 -82 -3 -13 -7 -30 -8 -38
-12 -65 -20 -97 -29 -107 -6 -9 -6 -13 2 -13 9 0 9 -5 1 -21 -7 -11 -9 -27 -6
-35 3 -8 2 -14 -2 -14 -4 0 -8 -12 -9 -27 -1 -16 -5 -46 -9 -68 -4 -22 -7 -59
-8 -82 0 -22 -4 -39 -7 -37 -3 2 -6 -21 -5 -51 1 -32 -3 -55 -9 -55 -5 0 -3
-5 5 -10 8 -5 10 -10 5 -10 -7 0 -12 -80 -14 -231 -2 -191 0 -230 11 -223 10
6 11 5 2 -7 -6 -8 -10 -23 -8 -34 2 -11 5 -50 6 -87 2 -38 6 -68 9 -68 4 0 7
-19 7 -42 0 -24 1 -47 2 -53 1 -5 2 -13 1 -17 0 -5 3 -8 8 -8 4 0 7 -13 5 -30
-2 -16 0 -31 4 -34 4 -2 7 -23 7 -45 0 -23 3 -41 7 -41 5 0 8 -16 8 -35 0 -19
4 -35 8 -35 5 0 9 -6 9 -12 3 -37 11 -79 16 -85 4 -3 7 -17 7 -30 0 -13 3 -22
7 -20 5 3 9 -11 10 -31 4 -54 5 -62 15 -62 4 0 8 -13 8 -30 0 -16 4 -30 8 -30
4 0 9 -12 10 -27 1 -15 7 -30 13 -34 6 -3 10 -9 10 -13 -4 -25 0 -46 8 -42 4
3 8 -5 7 -17 -1 -12 2 -25 6 -28 5 -3 10 -16 13 -28 2 -13 9 -29 16 -37 6 -8
9 -14 5 -14 -4 0 1 -15 11 -32 9 -18 17 -35 18 -38 0 -3 4 -11 9 -19 7 -11 6
-12 -5 -6 -9 6 -8 2 3 -11 14 -16 49 -90 49 -104 0 -3 7 -12 15 -21 8 -9 11
-19 7 -22 -3 -4 0 -7 7 -7 7 0 11 -3 7 -6 -3 -3 8 -28 24 -55 16 -28 29 -52
29 -55 0 -2 11 -22 25 -44 14 -22 25 -46 25 -55 0 -8 5 -15 10 -15 6 0 10 -7
10 -15 0 -8 5 -15 10 -15 6 0 10 -5 10 -10 0 -6 30 -57 67 -113 73 -110 71
-107 108 -152 14 -16 25 -36 25 -43 0 -7 4 -10 10 -7 6 3 10 2 10 -4 0 -6 13
-26 30 -44 16 -19 27 -37 23 -41 -3 -3 1 -6 10 -6 9 0 17 -4 17 -9 0 -5 14
-24 30 -42 17 -19 52 -58 78 -87 26 -29 53 -58 60 -65 7 -7 18 -18 25 -25 7
-7 20 -21 31 -30 61 -55 84 -79 89 -92 3 -8 6 -10 6 -3 1 6 22 -11 48 -38 27
-27 51 -49 54 -49 4 0 26 -18 50 -40 24 -22 50 -40 57 -40 7 0 10 -4 7 -10 -3
-5 0 -10 8 -10 8 0 18 -7 21 -16 3 -8 10 -13 14 -10 5 3 15 -4 22 -15 8 -10
20 -19 27 -19 7 0 13 -4 13 -10 0 -5 6 -10 14 -10 8 0 16 -3 18 -8 6 -13 92
-72 106 -72 7 0 11 -4 7 -9 -3 -5 10 -15 29 -22 19 -7 33 -16 30 -21 -3 -4 3
-8 14 -8 10 0 27 -9 37 -20 10 -11 24 -20 30 -20 7 0 25 -10 41 -22 15 -13 24
-16 19 -8 -4 8 3 5 17 -8 14 -13 35 -24 46 -25 11 0 19 -4 16 -8 -4 -7 37 -25
45 -20 2 2 7 -2 10 -7 9 -13 67 -42 86 -42 8 0 15 -4 15 -10 0 -5 9 -10 20
-10 11 0 20 -3 20 -8 0 -6 35 -21 80 -33 8 -2 17 -7 20 -10 10 -11 175 -74
187 -71 7 2 13 -2 13 -9 0 -6 8 -9 20 -6 11 3 20 1 20 -3 0 -7 38 -20 70 -25
3 0 11 -4 18 -8 6 -5 12 -6 12 -3 0 3 12 1 27 -5 16 -6 36 -13 46 -15 9 -2 27
-7 40 -10 12 -3 36 -8 52 -11 17 -3 32 -8 35 -11 3 -4 14 -7 25 -6 11 0 25 -3
30 -6 6 -4 21 -6 35 -6 14 1 27 -2 30 -5 3 -4 21 -8 40 -10 19 -2 39 -5 44 -8
11 -5 73 -12 131 -14 22 -1 43 -6 47 -12 5 -6 138 -10 365 -10 321 0 415 4
533 21 19 3 49 7 65 9 92 13 111 17 125 22 8 3 24 7 35 9 34 5 49 9 63 17 7 5
12 3 12 -4 0 -9 3 -9 15 1 8 6 24 13 37 15 13 2 33 6 46 9 12 3 30 8 40 10 9
3 46 14 81 25 36 11 68 18 73 15 4 -3 8 -1 8 4 0 4 23 15 50 22 28 7 50 17 50
20 0 4 7 7 15 8 8 1 22 3 30 4 8 1 15 4 15 7 0 3 27 15 60 25 33 11 65 25 71
32 6 7 17 10 25 7 8 -3 14 0 14 6 0 6 3 10 8 10 15 -3 72 23 72 34 0 6 3 8 6
4 3 -3 38 11 77 31 40 20 75 35 80 34 4 -1 7 2 7 6 0 8 50 36 58 33 1 -1 10 5
18 14 9 8 22 15 30 15 8 0 14 3 14 8 0 4 27 23 60 41 33 19 60 39 60 45 0 5 3
6 6 3 4 -4 28 9 54 28 26 19 50 32 54 30 3 -3 4 -2 1 2 -3 3 12 18 33 32 20
13 42 30 49 35 6 6 30 24 52 40 23 17 41 33 41 38 0 4 5 8 11 8 7 0 22 11 35
26 13 14 24 23 24 20 0 -4 18 12 39 33 22 22 41 38 43 36 2 -1 61 55 131 126
70 71 125 129 122 129 -3 0 12 17 33 38 51 53 87 97 82 99 -3 2 5 10 18 18 12
9 22 20 22 25 0 9 27 44 62 81 9 9 14 20 10 23 -3 3 0 6 6 6 7 0 12 6 12 14 0
8 7 17 16 20 9 4 14 9 11 12 -5 5 8 24 43 64 8 9 16 23 18 31 2 8 8 16 13 17
5 2 9 8 9 14 0 5 12 25 26 43 14 19 27 41 28 49 1 8 9 23 18 33 9 10 25 37 37
60 11 23 25 44 31 48 5 3 10 15 10 26 0 10 3 19 8 19 9 0 58 121 54 133 -1 5
2 6 8 2 5 -3 10 1 10 9 0 9 4 16 10 16 5 0 9 3 8 8 -3 8 31 101 42 117 10 14
34 89 32 98 -1 4 2 7 7 7 5 0 12 15 16 33 11 48 11 48 34 105 11 28 18 52 16
52 -3 0 -1 10 6 21 6 12 13 36 16 53 3 17 9 37 15 43 6 7 8 22 5 33 -3 11 0
20 6 20 6 0 8 3 5 6 -4 3 -2 20 3 37 16 53 22 80 35 162 3 22 10 42 15 43 6 2
5 10 -2 18 -6 8 -7 14 -2 14 5 0 9 10 10 23 0 22 8 80 20 152 11 73 12 745 0
745 -8 0 -8 3 0 11 7 7 8 21 2 42 -10 35 -20 112 -23 169 0 20 -4 34 -8 31 -5
-2 -8 11 -9 29 0 18 -3 42 -5 53 -3 11 -5 28 -5 38 0 9 -4 17 -9 17 -4 0 -7 8
-6 17 2 9 -3 36 -10 60 -7 24 -10 43 -7 43 3 0 1 6 -4 13 -5 6 -9 19 -8 27 0
8 -2 17 -5 20 -3 3 -11 25 -18 50 -7 25 -15 54 -18 65 -4 11 -7 30 -8 43 0 12
-4 22 -8 22 -7 0 -32 74 -33 99 0 8 -5 16 -12 18 -7 3 -9 11 -6 19 3 8 0 14
-7 14 -6 0 -9 4 -6 8 3 5 -2 21 -10 36 -7 16 -14 37 -14 47 0 11 -4 19 -8 19
-8 0 -34 56 -36 75 -1 6 -3 12 -6 15 -3 3 -16 30 -30 60 -14 30 -29 58 -33 61
-5 3 -10 12 -12 20 -8 34 -18 59 -24 59 -3 0 -12 15 -20 33 -8 17 -22 44 -32
58 -10 14 -19 32 -21 39 -3 14 -7 20 -35 54 -6 7 -9 17 -6 20 4 3 1 6 -6 6 -7
0 -10 4 -7 9 4 5 2 11 -3 13 -11 4 -81 107 -81 119 0 5 -4 9 -9 9 -5 0 -16 16
-25 35 -9 19 -22 35 -28 35 -6 0 -9 3 -5 6 3 3 -8 19 -26 35 -17 16 -28 29
-24 29 5 0 2 6 -5 13 -7 8 -29 33 -48 57 -44 55 -78 94 -112 132 -16 17 -28
34 -28 39 0 5 -6 9 -12 9 -7 0 -24 16 -38 34 -14 19 -27 33 -30 31 -3 -2 -15
10 -25 26 -11 16 -25 29 -32 29 -6 0 -15 9 -18 20 -3 11 -11 20 -16 20 -5 0
-29 19 -53 43 -49 47 -99 89 -230 192 -28 22 -65 49 -81 61 -17 11 -60 41 -97
67 -38 26 -68 45 -68 42 0 -3 -10 3 -22 15 -12 11 -28 20 -35 20 -7 0 -13 4
-13 8 0 10 -50 37 -62 34 -5 -1 -8 3 -8 9 0 5 -4 7 -10 4 -5 -3 -10 -1 -10 4
0 6 -7 11 -15 11 -8 0 -15 5 -15 11 0 5 -4 7 -10 4 -5 -3 -10 -2 -10 2 0 5
-38 26 -85 48 -47 22 -85 43 -85 47 0 4 -7 5 -15 2 -8 -4 -15 -2 -15 3 0 9
-69 39 -82 35 -5 -1 -8 2 -8 7 0 5 -12 12 -27 16 -16 3 -41 12 -58 20 -78 34
-199 76 -226 78 -10 1 -19 5 -19 9 0 4 -9 8 -20 8 -11 0 -20 4 -20 10 0 5 -7
7 -15 4 -8 -4 -21 -2 -28 4 -6 5 -20 8 -29 7 -10 -2 -18 1 -18 6 0 5 -16 9
-35 9 -19 0 -35 4 -35 8 0 5 -6 9 -12 9 -24 1 -95 13 -126 22 -17 5 -33 7 -36
3 -3 -3 -6 -1 -6 5 0 6 -10 11 -22 11 -13 -1 -41 2 -63 5 -22 4 -58 9 -80 12
-22 3 -56 8 -75 12 -19 3 -55 7 -80 7 -25 1 -51 5 -58 9 -7 5 -12 3 -12 -5 0
-9 -3 -9 -10 2 -9 13 -10 13 -10 0 0 -11 -2 -12 -8 -3 -5 9 -75 12 -259 11
-138 0 -254 -2 -257 -5z"/>
</g>
</svg>
